<?xml version="1.0" encoding="UTF-8" standalone="no"?>
<!-- Generator: Adobe Illustrator 19.0.0, SVG Export Plug-In . SVG Version: 6.00 Build 0)  -->

<svg
   xmlns:dc="http://purl.org/dc/elements/1.1/"
   xmlns:cc="http://creativecommons.org/ns#"
   xmlns:rdf="http://www.w3.org/1999/02/22-rdf-syntax-ns#"
   xmlns:svg="http://www.w3.org/2000/svg"
   xmlns="http://www.w3.org/2000/svg"
   xmlns:sodipodi="http://sodipodi.sourceforge.net/DTD/sodipodi-0.dtd"
   xmlns:inkscape="http://www.inkscape.org/namespaces/inkscape"
   version="1.1"
   id="Capa_1"
   x="0px"
   y="0px"
   width="51px"
   height="30px"
   viewBox="0 0 504 504"
   style="enable-background:new 0 0 504 504;"
   xml:space="preserve"
   sodipodi:docname="mastercard.svg"
   inkscape:version="0.92.3 (2405546, 2018-03-11)"><metadata
   id="metadata93"><rdf:RDF><cc:Work
       rdf:about=""><dc:format>image/svg+xml</dc:format><dc:type
         rdf:resource="http://purl.org/dc/dcmitype/StillImage" /></cc:Work></rdf:RDF></metadata><defs
   id="defs91" /><sodipodi:namedview
   pagecolor="#ffffff"
   bordercolor="#666666"
   borderopacity="1"
   objecttolerance="10"
   gridtolerance="10"
   guidetolerance="10"
   inkscape:pageopacity="0"
   inkscape:pageshadow="2"
   inkscape:window-width="1920"
   inkscape:window-height="1017"
   id="namedview89"
   showgrid="false"
   inkscape:zoom="14.984127"
   inkscape:cx="44.380834"
   inkscape:cy="20.606816"
   inkscape:window-x="1912"
   inkscape:window-y="-8"
   inkscape:window-maximized="1"
   inkscape:current-layer="Capa_1" />
<path
   style="fill:#ffb600;stroke-width:1.6832509"
   d="m 678.99857,248.42304 c 0,138.6667 -114.24,252 -257.03997,252 -141.44004,0 -257.04,-113.3333 -257.04,-252 v 0 c 0,-138.66669 114.24,-251.999998 255.67987,-251.999998 144.1601,0 258.4001,113.333308 258.4001,251.999998 z"
   id="path2"
   inkscape:connector-curvature="0" />
<path
   style="fill:#f7981d;stroke-width:1.6832509"
   d="m 421.9586,-3.576958 c 141.43987,0 257.03997,113.333308 257.03997,251.999998 v 0 c 0,138.6667 -114.24,252 -257.03997,252 -141.44004,0 -257.04,-113.3333 -257.04,-252"
   id="path4"
   inkscape:connector-curvature="0" />
<path
   style="fill:#ff8500;stroke-width:1.6832509"
   d="m 421.9586,-3.576958 c 141.43987,0 257.03997,113.333308 257.03997,251.999998 v 0 c 0,138.6667 -114.24,252 -257.03997,252"
   id="path6"
   inkscape:connector-curvature="0" />
<path
   style="fill:#ff5050;stroke-width:1.6832509"
   d="M 76.51851,-3.576958 C -63.561403,-2.243038 -177.8014,109.75635 -177.8014,248.42304 c 0,138.6667 114.239997,252 257.04,252 66.63989,0 126.47998,-25.33339 172.71996,-65.33335 v 0 0 c 9.52006,-7.99999 17.67998,-17.33323 25.83991,-26.66664 h -53.03995 c -6.79997,-7.99999 -13.59994,-17.3334 -19.03994,-25.33339 h 91.12 c 5.44001,-7.99999 10.88002,-17.33323 14.9599,-26.66664 H 190.75851 c -4.08005,-7.99999 -8.15993,-17.33323 -10.88001,-26.66664 h 141.44004 c 8.15992,-25.33339 13.59993,-52.00003 13.59993,-79.99992 0,-18.66682 -2.71992,-36.00005 -5.44001,-53.33345 H 171.71857 c 1.3608,-9.33324 4.08005,-17.33323 6.79997,-26.66664 h 141.44004 c -2.72009,-9.33341 -6.79997,-18.66665 -10.88002,-26.66664 H 189.39855 c 4.08005,-9.33341 9.52006,-17.3334 14.96007,-26.66664 h 91.12 c -5.44,-9.33341 -12.24014,-18.66665 -20.40007,-26.66664 h -50.32003 c 8.1601,-9.33341 16.32002,-17.3334 25.84008,-25.333388 -44.88002,-41.33338 -106.08007,-65.33335 -172.72013,-65.33335 0,-2.66667 0,-2.66667 -1.3608,-2.66667 z"
   id="path8"
   inkscape:connector-curvature="0" />
<path
   style="fill:#e52836;stroke-width:1.6832509"
   d="m -177.8014,248.42304 c 0,138.6667 114.239997,252 257.04,252 66.63989,0 126.47998,-25.33339 172.71996,-65.33335 v 0 0 c 9.52006,-7.99999 17.67998,-17.33323 25.83991,-26.66664 h -53.03995 c -6.79997,-7.99999 -13.59994,-17.3334 -19.03994,-25.33339 h 91.12 c 5.44001,-7.99999 10.88002,-17.33323 14.9599,-26.66664 H 190.75851 c -4.08005,-7.99999 -8.15993,-17.33323 -10.88001,-26.66664 h 141.44004 c 8.15992,-25.33339 13.59993,-52.00003 13.59993,-79.99992 0,-18.66682 -2.71992,-36.00005 -5.44001,-53.33345 H 171.71857 c 1.3608,-9.33324 4.08005,-17.33323 6.79997,-26.66664 h 141.44004 c -2.72009,-9.33341 -6.79997,-18.66665 -10.88002,-26.66664 H 189.39855 c 4.08005,-9.33341 9.52006,-17.3334 14.96007,-26.66664 h 91.12 c -5.44,-9.33341 -12.24014,-18.66665 -20.40007,-26.66664 h -50.32003 c 8.1601,-9.33341 16.32002,-17.3334 25.84008,-25.333388 C 205.71858,23.089682 144.51853,-0.910288 77.87847,-0.910288 h -1.3608"
   id="path10"
   inkscape:connector-curvature="0" />
<path
   style="fill:#cb2026;stroke-width:1.6832509"
   d="m 79.2386,500.42304 c 66.63989,0 126.47998,-25.33339 172.71996,-65.33335 v 0 0 c 9.52006,-7.99999 17.67998,-17.33323 25.83991,-26.66664 h -53.03995 c -6.79997,-7.99999 -13.59994,-17.3334 -19.03994,-25.33339 h 91.12 c 5.44001,-7.99999 10.88002,-17.33323 14.9599,-26.66664 H 190.75851 c -4.08005,-7.99999 -8.15993,-17.33323 -10.88001,-26.66664 h 141.44004 c 8.15992,-25.33339 13.59993,-52.00003 13.59993,-79.99992 0,-18.66682 -2.71992,-36.00005 -5.44001,-53.33345 H 171.71857 c 1.3608,-9.33324 4.08005,-17.33323 6.79997,-26.66664 h 141.44004 c -2.72009,-9.33341 -6.79997,-18.66665 -10.88002,-26.66664 H 189.39855 c 4.08005,-9.33341 9.52006,-17.3334 14.96007,-26.66664 h 91.12 c -5.44,-9.33341 -12.24014,-18.66665 -20.40007,-26.66664 h -50.32003 c 8.1601,-9.33341 16.32002,-17.3334 25.84008,-25.333388 C 205.71858,23.089682 144.51853,-0.910288 77.87847,-0.910288 h -1.3608"
   id="path12"
   inkscape:connector-curvature="0" />
<g
   id="g34"
   transform="matrix(1.7000001,0,0,1.6666667,-177.8014,-171.57696)">
	<path
   style="fill:#ffffff"
   d="m 204.8,290.4 2.4,-13.6 c -0.8,0 -2.4,0.8 -4,0.8 -5.6,0 -6.4,-3.2 -5.6,-4.8 l 4.8,-28 h 8.8 l 2.4,-15.2 h -8 l 1.6,-9.6 h -16 c 0,0 -9.6,52.8 -9.6,59.2 0,9.6 5.6,13.6 12.8,13.6 4.8,0 8.8,-1.6 10.4,-2.4 z"
   id="path14"
   inkscape:connector-curvature="0" />
	<path
   style="fill:#ffffff"
   d="m 210.4,264.8 c 0,22.4 15.2,28 28,28 12,0 16.8,-2.4 16.8,-2.4 l 3.2,-15.2 c 0,0 -8.8,4 -16.8,4 -17.6,0 -14.4,-12.8 -14.4,-12.8 H 260 c 0,0 2.4,-10.4 2.4,-14.4 0,-10.4 -5.6,-23.2 -23.2,-23.2 -16.8,-1.6 -28.8,16 -28.8,36 z m 28,-23.2 c 8.8,0 7.2,10.4 7.2,11.2 H 228 c 0,-0.8 1.6,-11.2 10.4,-11.2 z"
   id="path16"
   inkscape:connector-curvature="0" />
	<path
   style="fill:#ffffff"
   d="m 340,290.4 3.2,-17.6 c 0,0 -8,4 -13.6,4 -11.2,0 -16,-8.8 -16,-18.4 0,-19.2 9.6,-29.6 20.8,-29.6 8,0 14.4,4.8 14.4,4.8 l 2.4,-16.8 c 0,0 -9.6,-4 -18.4,-4 -18.4,0 -36.8,16 -36.8,46.4 0,20 9.6,33.6 28.8,33.6 6.4,0 15.2,-2.4 15.2,-2.4 z"
   id="path18"
   inkscape:connector-curvature="0" />
	<path
   style="fill:#ffffff"
   d="m 116.8,227.2 c -11.2,0 -19.2,3.2 -19.2,3.2 L 95.2,244 c 0,0 7.2,-3.2 17.6,-3.2 5.6,0 10.4,0.8 10.4,5.6 0,3.2 -0.8,4 -0.8,4 0,0 -4.8,0 -7.2,0 -13.6,0 -28.8,5.6 -28.8,24 0,14.4 9.6,17.6 15.2,17.6 11.2,0 16,-7.2 16.8,-7.2 l -0.8,6.4 H 132 l 6.4,-44 c 0,-19.2 -16,-20 -21.6,-20 z m 3.2,36 c 0,2.4 -1.6,15.2 -11.2,15.2 -4.8,0 -6.4,-4 -6.4,-6.4 0,-4 2.4,-9.6 14.4,-9.6 2.4,0.8 3.2,0.8 3.2,0.8 z"
   id="path20"
   inkscape:connector-curvature="0" />
	<path
   style="fill:#ffffff"
   d="m 153.6,292 c 4,0 24,0.8 24,-20.8 0,-20 -19.2,-16 -19.2,-24 0,-4 3.2,-5.6 8.8,-5.6 2.4,0 11.2,0.8 11.2,0.8 l 2.4,-14.4 c 0,0 -5.6,-1.6 -15.2,-1.6 -12,0 -24,4.8 -24,20.8 0,18.4 20,16.8 20,24 0,4.8 -5.6,5.6 -9.6,5.6 -7.2,0 -14.4,-2.4 -14.4,-2.4 l -2.4,14.4 c 0.8,1.6 4.8,3.2 18.4,3.2 z"
   id="path22"
   inkscape:connector-curvature="0" />
	<path
   style="fill:#ffffff"
   d="m 472.8,214.4 -3.2,21.6 c 0,0 -6.4,-8 -15.2,-8 -14.4,0 -27.2,17.6 -27.2,38.4 0,12.8 6.4,26.4 20,26.4 9.6,0 15.2,-6.4 15.2,-6.4 l -0.8,5.6 h 16 l 12,-76.8 z m -7.2,42.4 c 0,8.8 -4,20 -12.8,20 -5.6,0 -8.8,-4.8 -8.8,-12.8 0,-12.8 5.6,-20.8 12.8,-20.8 5.6,0 8.8,4 8.8,13.6 z"
   id="path24"
   inkscape:connector-curvature="0" />
	<path
   style="fill:#ffffff"
   d="m 29.6,291.2 9.6,-57.6 1.6,57.6 H 52 L 72.8,233.6 64,291.2 H 80.8 L 93.6,214.4 H 67.2 l -16,47.2 -0.8,-47.2 H 27.2 l -12.8,76.8 z"
   id="path26"
   inkscape:connector-curvature="0" />
	<path
   style="fill:#ffffff"
   d="m 277.6,291.2 c 4.8,-26.4 5.6,-48 16.8,-44 1.6,-10.4 4,-14.4 5.6,-18.4 0,0 -0.8,0 -3.2,0 -7.2,0 -12.8,9.6 -12.8,9.6 l 1.6,-8.8 H 270.4 L 260,292 h 17.6 z"
   id="path28"
   inkscape:connector-curvature="0" />
	<path
   style="fill:#ffffff"
   d="m 376.8,227.2 c -11.2,0 -19.2,3.2 -19.2,3.2 l -2.4,13.6 c 0,0 7.2,-3.2 17.6,-3.2 5.6,0 10.4,0.8 10.4,5.6 0,3.2 -0.8,4 -0.8,4 0,0 -4.8,0 -7.2,0 -13.6,0 -28.8,5.6 -28.8,24 0,14.4 9.6,17.6 15.2,17.6 11.2,0 16,-7.2 16.8,-7.2 l -0.8,6.4 H 392 l 6.4,-44 c 0.8,-19.2 -16,-20 -21.6,-20 z m 4,36 c 0,2.4 -1.6,15.2 -11.2,15.2 -4.8,0 -6.4,-4 -6.4,-6.4 0,-4 2.4,-9.6 14.4,-9.6 2.4,0.8 2.4,0.8 3.2,0.8 z"
   id="path30"
   inkscape:connector-curvature="0" />
	<path
   style="fill:#ffffff"
   d="m 412,291.2 c 4.8,-26.4 5.6,-48 16.8,-44 1.6,-10.4 4,-14.4 5.6,-18.4 0,0 -0.8,0 -3.2,0 -7.2,0 -12.8,9.6 -12.8,9.6 l 1.6,-8.8 H 404.8 L 394.4,292 H 412 Z"
   id="path32"
   inkscape:connector-curvature="0" />
</g>
<g
   id="g56"
   transform="matrix(1.7000001,0,0,1.6666667,-177.8014,-171.57696)">
	<path
   style="fill:#dce5e5"
   d="m 180,279.2 c 0,9.6 5.6,13.6 12.8,13.6 5.6,0 10.4,-1.6 12,-2.4 l 2.4,-13.6 c -0.8,0 -2.4,0.8 -4,0.8 -5.6,0 -6.4,-3.2 -5.6,-4.8 l 4.8,-28 h 8.8 l 2.4,-15.2 h -8 l 1.6,-9.6"
   id="path36"
   inkscape:connector-curvature="0" />
	<path
   style="fill:#dce5e5"
   d="m 218.4,264.8 c 0,22.4 7.2,28 20,28 12,0 16.8,-2.4 16.8,-2.4 l 3.2,-15.2 c 0,0 -8.8,4 -16.8,4 -17.6,0 -14.4,-12.8 -14.4,-12.8 H 260 c 0,0 2.4,-10.4 2.4,-14.4 0,-10.4 -5.6,-23.2 -23.2,-23.2 -16.8,-1.6 -20.8,16 -20.8,36 z m 20,-23.2 c 8.8,0 10.4,10.4 10.4,11.2 H 228 c 0,-0.8 1.6,-11.2 10.4,-11.2 z"
   id="path38"
   inkscape:connector-curvature="0" />
	<path
   style="fill:#dce5e5"
   d="m 340,290.4 3.2,-17.6 c 0,0 -8,4 -13.6,4 -11.2,0 -16,-8.8 -16,-18.4 0,-19.2 9.6,-29.6 20.8,-29.6 8,0 14.4,4.8 14.4,4.8 l 2.4,-16.8 c 0,0 -9.6,-4 -18.4,-4 -18.4,0 -28.8,16 -28.8,46.4 0,20 1.6,33.6 20.8,33.6 6.4,0 15.2,-2.4 15.2,-2.4 z"
   id="path40"
   inkscape:connector-curvature="0" />
	<path
   style="fill:#dce5e5"
   d="m 95.2,244.8 c 0,0 7.2,-3.2 17.6,-3.2 5.6,0 10.4,0.8 10.4,5.6 0,3.2 -0.8,4 -0.8,4 0,0 -4.8,0 -7.2,0 -13.6,0 -28.8,5.6 -28.8,24 0,14.4 9.6,17.6 15.2,17.6 11.2,0 16,-7.2 16.8,-7.2 l -0.8,6.4 H 132 l 6.4,-44 c 0,-18.4 -16,-19.2 -22.4,-19.2 m 12,34.4 c 0,2.4 -9.6,15.2 -19.2,15.2 -4.8,0 -6.4,-4 -6.4,-6.4 0,-4 2.4,-9.6 14.4,-9.6 2.4,0.8 11.2,0.8 11.2,0.8 z"
   id="path42"
   inkscape:connector-curvature="0" />
	<path
   style="fill:#dce5e5"
   d="m 136,290.4 c 0,0 4.8,1.6 18.4,1.6 4,0 24,0.8 24,-20.8 0,-20 -19.2,-16 -19.2,-24 0,-4 3.2,-5.6 8.8,-5.6 2.4,0 11.2,0.8 11.2,0.8 l 2.4,-14.4 c 0,0 -5.6,-1.6 -15.2,-1.6 -12,0 -16,4.8 -16,20.8 0,18.4 12,16.8 12,24 0,4.8 -5.6,5.6 -9.6,5.6"
   id="path44"
   inkscape:connector-curvature="0" />
	<path
   style="fill:#dce5e5"
   d="m 469.6,236 c 0,0 -6.4,-8 -15.2,-8 -14.4,0 -19.2,17.6 -19.2,38.4 0,12.8 -1.6,26.4 12,26.4 9.6,0 15.2,-6.4 15.2,-6.4 l -0.8,5.6 h 16 l 12,-76.8 m -20.8,41.6 c 0,8.8 -7.2,20 -16,20 -5.6,0 -8.8,-4.8 -8.8,-12.8 0,-12.8 5.6,-20.8 12.8,-20.8 5.6,0 12,4 12,13.6 z"
   id="path46"
   inkscape:connector-curvature="0" />
	<path
   style="fill:#dce5e5"
   d="m 29.6,291.2 9.6,-57.6 1.6,57.6 H 52 L 72.8,233.6 64,291.2 h 16.8 l 12.8,-76.8 h -20 l -22.4,47.2 -0.8,-47.2 h -8.8 l -27.2,76.8 z"
   id="path48"
   inkscape:connector-curvature="0" />
	<path
   style="fill:#dce5e5"
   d="m 260.8,291.2 h 16.8 c 4.8,-26.4 5.6,-48 16.8,-44 1.6,-10.4 4,-14.4 5.6,-18.4 0,0 -0.8,0 -3.2,0 -7.2,0 -12.8,9.6 -12.8,9.6 l 1.6,-8.8"
   id="path50"
   inkscape:connector-curvature="0" />
	<path
   style="fill:#dce5e5"
   d="m 355.2,244.8 c 0,0 7.2,-3.2 17.6,-3.2 5.6,0 10.4,0.8 10.4,5.6 0,3.2 -0.8,4 -0.8,4 0,0 -4.8,0 -7.2,0 -13.6,0 -28.8,5.6 -28.8,24 0,14.4 9.6,17.6 15.2,17.6 11.2,0 16,-7.2 16.8,-7.2 l -0.8,6.4 H 392 l 6.4,-44 c 0,-18.4 -16,-19.2 -22.4,-19.2 m 12,34.4 c 0,2.4 -9.6,15.2 -19.2,15.2 -4.8,0 -6.4,-4 -6.4,-6.4 0,-4 2.4,-9.6 14.4,-9.6 3.2,0.8 11.2,0.8 11.2,0.8 z"
   id="path52"
   inkscape:connector-curvature="0" />
	<path
   style="fill:#dce5e5"
   d="M 395.2,291.2 H 412 c 4.8,-26.4 5.6,-48 16.8,-44 1.6,-10.4 4,-14.4 5.6,-18.4 0,0 -0.8,0 -3.2,0 -7.2,0 -12.8,9.6 -12.8,9.6 l 1.6,-8.8"
   id="path54"
   inkscape:connector-curvature="0" />
</g>
<g
   id="g58"
   transform="matrix(1.7000001,0,0,1.6666667,-177.8014,-171.57696)">
</g>
<g
   id="g60"
   transform="matrix(1.7000001,0,0,1.6666667,-177.8014,-171.57696)">
</g>
<g
   id="g62"
   transform="matrix(1.7000001,0,0,1.6666667,-177.8014,-171.57696)">
</g>
<g
   id="g64"
   transform="matrix(1.7000001,0,0,1.6666667,-177.8014,-171.57696)">
</g>
<g
   id="g66"
   transform="matrix(1.7000001,0,0,1.6666667,-177.8014,-171.57696)">
</g>
<g
   id="g68"
   transform="matrix(1.7000001,0,0,1.6666667,-177.8014,-171.57696)">
</g>
<g
   id="g70"
   transform="matrix(1.7000001,0,0,1.6666667,-177.8014,-171.57696)">
</g>
<g
   id="g72"
   transform="matrix(1.7000001,0,0,1.6666667,-177.8014,-171.57696)">
</g>
<g
   id="g74"
   transform="matrix(1.7000001,0,0,1.6666667,-177.8014,-171.57696)">
</g>
<g
   id="g76"
   transform="matrix(1.7000001,0,0,1.6666667,-177.8014,-171.57696)">
</g>
<g
   id="g78"
   transform="matrix(1.7000001,0,0,1.6666667,-177.8014,-171.57696)">
</g>
<g
   id="g80"
   transform="matrix(1.7000001,0,0,1.6666667,-177.8014,-171.57696)">
</g>
<g
   id="g82"
   transform="matrix(1.7000001,0,0,1.6666667,-177.8014,-171.57696)">
</g>
<g
   id="g84"
   transform="matrix(1.7000001,0,0,1.6666667,-177.8014,-171.57696)">
</g>
<g
   id="g86"
   transform="matrix(1.7000001,0,0,1.6666667,-177.8014,-171.57696)">
</g>
</svg>