<?xml version="1.0" encoding="UTF-8" standalone="no"?>
<!-- Generator: Adobe Illustrator 19.0.0, SVG Export Plug-In . SVG Version: 6.00 Build 0)  -->

<svg
   xmlns:dc="http://purl.org/dc/elements/1.1/"
   xmlns:cc="http://creativecommons.org/ns#"
   xmlns:rdf="http://www.w3.org/1999/02/22-rdf-syntax-ns#"
   xmlns:svg="http://www.w3.org/2000/svg"
   xmlns="http://www.w3.org/2000/svg"
   xmlns:sodipodi="http://sodipodi.sourceforge.net/DTD/sodipodi-0.dtd"
   xmlns:inkscape="http://www.inkscape.org/namespaces/inkscape"
   version="1.1"
   id="Capa_1"
   x="0px"
   y="0px"
   width="94px"
   height="28px"
   viewBox="0 0 504 504"
   style="enable-background:new 0 0 504 504;"
   xml:space="preserve"
   sodipodi:docname="visa.svg"
   inkscape:version="0.92.3 (2405546, 2018-03-11)"><metadata
   id="metadata39"><rdf:RDF><cc:Work
       rdf:about=""><dc:format>image/svg+xml</dc:format><dc:type
         rdf:resource="http://purl.org/dc/dcmitype/StillImage" /></cc:Work></rdf:RDF></metadata><defs
   id="defs37" /><sodipodi:namedview
   pagecolor="#ffffff"
   bordercolor="#666666"
   borderopacity="1"
   objecttolerance="10"
   gridtolerance="10"
   guidetolerance="10"
   inkscape:pageopacity="0"
   inkscape:pageshadow="2"
   inkscape:window-width="1920"
   inkscape:window-height="1017"
   id="namedview35"
   showgrid="false"
   showguides="false"
   inkscape:guide-bbox="true"
   inkscape:measure-start="0,0"
   inkscape:measure-end="0,0"
   inkscape:snap-global="true"
   inkscape:zoom="11.313709"
   inkscape:cx="67.99562"
   inkscape:cy="11.311922"
   inkscape:window-x="1912"
   inkscape:window-y="-8"
   inkscape:window-maximized="1"
   inkscape:current-layer="Capa_1"><sodipodi:guide
     position="137.93684,67.902632"
     orientation="1,0"
     id="guide41"
     inkscape:locked="false" /><sodipodi:guide
     position="415.8,6.6789474"
     orientation="1,0"
     inkscape:locked="false"
     id="guide43" /><sodipodi:guide
     position="78.252632,329.49474"
     orientation="0,1"
     inkscape:locked="false"
     id="guide45" /><sodipodi:guide
     position="42.442105,182.55789"
     orientation="0,1"
     inkscape:locked="false"
     id="guide47" /></sodipodi:namedview>
<polygon
   style="fill:#3c58bf"
   points="210.4,180.4 250.4,180.4 225.6,324.4 184.8,324.4 "
   id="polygon2"
   transform="matrix(3.3571428,0,0,3.2984293,-607.79374,-576.38919)" />
<polygon
   style="fill:#293688"
   points="217.6,180.4 250.4,180.4 225.6,324.4 184.8,324.4 "
   id="polygon4"
   transform="matrix(3.3571428,0,0,3.2984293,-607.79374,-576.38919)" />
<path
   style="fill:#3c58bf;stroke-width:3.32765651"
   d="m 635.69203,23.924949 c -26.8572,-10.55498 -69.8286,-21.1099502 -123.5429,-21.1099502 -134.28572,0 -230.97143,65.9685902 -230.97143,160.9633512 0,71.24607 67.14286,108.18848 120.85714,131.93717 53.71429,23.74869 69.82859,39.58116 69.82859,60.6911 0,31.66492 -42.9714,47.49739 -80.57144,47.49739 -53.71429,0 -83.25715,-7.91624 -128.91429,-26.38744 l -18.8,-7.91623 -18.8,108.18848 c 32.22857,13.19372 91.31429,26.38744 153.08571,26.38744 142.34282,0 236.34282,-65.96859 236.34282,-166.24084 0,-55.41361 -34.9142,-97.63351 -115.4857,-131.93718 -48.3428,-23.74869 -77.88569,-36.9424 -77.88569,-60.69109 0,-21.10995 24.17139,-42.2199 77.88569,-42.2199 45.6572,0 77.8857,7.91623 102.0572,18.4712 l 13.4285,5.27749 z"
   id="path6"
   inkscape:connector-curvature="0" />
<path
   style="fill:#293688;stroke-width:3.32765651"
   d="m 635.69203,23.924949 c -26.8572,-10.55498 -69.8286,-21.1099502 -123.5429,-21.1099502 -134.28572,0 -206.8,65.9685902 -206.8,160.9633512 0,71.24607 42.97143,108.18848 96.68571,131.93717 53.71429,23.74869 69.82859,39.58116 69.82859,60.6911 0,31.66492 -42.9714,47.49739 -80.57144,47.49739 -53.71429,0 -83.25715,-7.91624 -128.91429,-26.38744 l -18.8,-7.91623 -18.8,108.18848 c 32.22857,13.19372 91.31429,26.38744 153.08571,26.38744 142.34282,0 236.34282,-65.96859 236.34282,-166.24084 0,-55.41361 -34.9142,-97.63351 -115.4857,-131.93718 -48.3428,-23.74869 -77.88569,-36.9424 -77.88569,-60.69109 0,-21.10995 24.17139,-42.2199 77.88569,-42.2199 45.6572,0 77.8857,7.91623 102.0572,18.4712 l 13.4285,5.27749 z"
   id="path8"
   inkscape:connector-curvature="0" />
<path
   style="fill:#3c58bf;stroke-width:3.32765651"
   d="m 866.66343,18.647459 c -32.2286,0 -56.4,2.63874 -69.8286,34.30367 L 595.40623,493.62128 h 145.0286 l 26.8572,-79.1623 h 171.8857 l 16.1143,79.1623 h 128.91417 l -112.8,-474.973821 z m -61.7714,316.649221 c 8.0571,-23.7487 53.7142,-139.85341 53.7142,-139.85341 0,0 10.7429,-29.02618 18.8,-47.49738 l 8.0572,44.85864 c 0,0 26.8571,118.74345 32.2286,145.13089 h -112.8 z"
   id="path10"
   inkscape:connector-curvature="0" />
<path
   style="fill:#293688;stroke-width:3.32765651"
   d="m 898.89203,18.647459 c -32.2286,0 -56.4,2.63874 -69.8286,34.30367 L 595.40623,493.62128 h 145.0286 l 26.8572,-79.1623 h 171.8857 l 16.1143,79.1623 h 128.91417 l -112.8,-474.973821 z m -94,316.649221 c 10.7428,-26.38744 53.7142,-139.85341 53.7142,-139.85341 0,0 10.7429,-29.02618 18.8,-47.49738 l 8.0572,44.85864 c 0,0 26.8571,118.74345 32.2286,145.13089 h -112.8 z"
   id="path12"
   inkscape:connector-curvature="0" />
<path
   style="fill:#3c58bf;stroke-width:3.32765651"
   d="m -234.47945,351.12914 -13.42857,-68.60733 c -24.17143,-79.16231 -102.05714,-166.24084 -188,-208.460741 l 120.85714,422.198961 h 145.02857 L 47.520558,21.286199 h -145.02857 z"
   id="path14"
   inkscape:connector-curvature="0" />
<path
   style="fill:#293688;stroke-width:3.32765651"
   d="m -234.47945,351.12914 -13.42857,-68.60733 c -24.17143,-79.16231 -102.05714,-166.24084 -188,-208.460741 l 120.85714,422.198961 h 145.02857 L 47.520558,21.286199 h -118.17143 z"
   id="path16"
   inkscape:connector-curvature="0" />
<path
   style="fill:#ffbc00;stroke-width:3.32765651"
   d="m -607.79374,18.647459 24.17143,5.27749 c 171.88572,39.58115 290.05714,139.853401 335.71429,258.596861 L -296.25088,58.228609 c -8.05714,-31.66492 -32.22857,-39.58115 -61.77143,-39.58115 z"
   id="path18"
   inkscape:connector-curvature="0" />
<path
   style="fill:#f7981d;stroke-width:3.32765651"
   d="m -607.79374,18.647459 v 0 c 171.88572,39.58115 314.22857,142.492151 359.88572,261.235601 L -293.56517,92.532276 c -8.05714,-31.664917 -34.91428,-50.136127 -64.45714,-50.136127 z"
   id="path20"
   inkscape:connector-curvature="0" />
<path
   style="fill:#ed7c00;stroke-width:3.32765651"
   d="m -607.79374,18.647459 v 0 c 171.88572,39.58115 314.22857,142.492151 359.88572,261.235601 l -32.22857,-102.91099 c -8.05715,-31.66492 -18.8,-63.32985 -56.4,-76.52356 z"
   id="path22"
   inkscape:connector-curvature="0" />
<g
   id="g32"
   transform="matrix(3.3571428,0,0,3.2984293,-607.79374,-576.38919)">
	<path
   style="fill:#051244"
   d="m 151.2,276.4 -27.2,-27.2 -12.8,30.4 -3.2,-20 c -7.2,-24 -30.4,-50.4 -56,-63.2 l 36,128 h 43.2 z"
   id="path24"
   inkscape:connector-curvature="0" />
	<polygon
   style="fill:#051244"
   points="225.6,324.4 191.2,289.2 184.8,324.4 "
   id="polygon26" />
	<path
   style="fill:#051244"
   d="m 317.6,274.8 v 0 c 3.2,3.2 4.8,5.6 4,8.8 0,9.6 -12.8,14.4 -24,14.4 -16,0 -24.8,-2.4 -38.4,-8 l -5.6,-2.4 -5.6,32.8 c 9.6,4 27.2,8 45.6,8 25.6,0 46.4,-7.2 58.4,-20 z"
   id="path28"
   inkscape:connector-curvature="0" />
	<path
   style="fill:#051244"
   d="m 364,324.4 h 37.6 l 8,-24 h 51.2 l 4.8,24 H 504 l -13.6,-58.4 -48,-46.4 2.4,12.8 c 0,0 8,36 9.6,44 h -33.6 c 3.2,-8 16,-42.4 16,-42.4 0,0 3.2,-8.8 5.6,-14.4"
   id="path30"
   inkscape:connector-curvature="0" />
</g>
</svg>